<svg width="27.953125" height="29.423950" viewBox="0 0 27.9531 29.424" fill="none" xmlns="http://www.w3.org/2000/svg" xmlns:xlink="http://www.w3.org/1999/xlink">
	<desc>
			Created with Pixso.
	</desc>
	<defs/>
	<path id="Vector" d="M16.32 0.01C16.16 0.02 16 0.04 15.85 0.09L4.92 3.29C3.7 3.65 2.97 4.98 3.32 6.25L8.43 24.81C8.44 24.87 8.46 24.93 8.49 24.99L9.23 27.69C9.57 28.95 10.87 29.69 12.09 29.33L23.02 26.13C24.25 25.77 24.98 24.43 24.63 23.17L23.91 20.57C23.92 20.42 23.88 20.27 23.8 20.15L18.72 1.73C18.46 0.78 17.68 0.12 16.78 0.01C16.63 -0.01 16.47 -0.01 16.32 0.01ZM16.41 1.27C16.92 1.23 17.39 1.56 17.54 2.09L22.48 20.09L9.46 23.89L4.52 5.89C4.35 5.28 4.69 4.68 5.27 4.51L16.2 1.31C16.27 1.28 16.34 1.27 16.41 1.27ZM22.15 5.53C21.97 5.56 21.81 5.67 21.72 5.83C21.63 5.99 21.6 6.19 21.66 6.37L24.76 17.65C24.86 17.99 25.21 18.19 25.54 18.09C25.87 17.99 26.06 17.63 25.97 17.29L22.87 6.01C22.8 5.72 22.55 5.53 22.27 5.53C22.25 5.53 22.23 5.53 22.21 5.53C22.19 5.53 22.17 5.53 22.15 5.53ZM25.66 7.55C25.48 7.58 25.32 7.69 25.23 7.85C25.13 8.01 25.11 8.21 25.17 8.39L26.72 14.03C26.82 14.37 27.16 14.57 27.5 14.47C27.83 14.37 28.02 14.01 27.92 13.67L26.37 8.03C26.3 7.74 26.06 7.55 25.77 7.55C25.75 7.55 25.73 7.55 25.71 7.55C25.69 7.55 25.68 7.55 25.66 7.55ZM2.52 11.29C2.5 11.29 2.48 11.3 2.46 11.31C2.29 11.34 2.13 11.45 2.04 11.6C1.95 11.76 1.93 11.95 1.98 12.13L5.08 23.41C5.18 23.75 5.52 23.95 5.85 23.85C6.19 23.75 6.38 23.39 6.28 23.05L3.18 11.77C3.11 11.48 2.86 11.29 2.58 11.29C2.56 11.29 2.54 11.29 2.52 11.29ZM0.57 14.91C0.55 14.91 0.53 14.92 0.51 14.93C0.33 14.96 0.18 15.07 0.09 15.22C-0.01 15.38 -0.03 15.57 0.02 15.75L1.57 21.39C1.67 21.73 2.02 21.93 2.35 21.83C2.68 21.73 2.87 21.37 2.77 21.03L1.22 15.39C1.15 15.1 0.91 14.91 0.62 14.91C0.6 14.91 0.58 14.91 0.57 14.91ZM22.83 21.33L23.43 23.53C23.59 24.13 23.26 24.74 22.67 24.91L11.74 28.11C11.16 28.28 10.57 27.93 10.41 27.33L9.81 25.13L22.83 21.33ZM16.7 23.99C16.65 23.99 16.59 23.99 16.53 24.01C16.08 24.14 15.82 24.64 15.95 25.11C16.08 25.57 16.54 25.84 17 25.71C17.45 25.57 17.7 25.09 17.58 24.63C17.47 24.22 17.1 23.96 16.7 23.99Z" fill="#606571" fill-opacity="1.000000" fill-rule="nonzero"/>
</svg>
