<svg width="293.000000" height="67.000000" viewBox="0 0 293 67" fill="none" xmlns="http://www.w3.org/2000/svg" xmlns:xlink="http://www.w3.org/1999/xlink">
	<desc>
			Created with Pixso.
	</desc>
	<defs>
		<clipPath id="clip51_1030">
			<rect id="logo_02 1" rx="0.000000" width="292.000000" height="66.000000" transform="translate(0.500000 0.500000)" fill="white" fill-opacity="0"/>
		</clipPath>
		<linearGradient x1="11.713623" y1="33.797241" x2="288.385376" y2="33.797241" id="paint_linear_51_1034_0" gradientUnits="userSpaceOnUse">
			<stop stop-color="#EA422A"/>
			<stop offset="0.094788" stop-color="#EC5128"/>
			<stop offset="0.523442" stop-color="#F69020"/>
			<stop offset="0.836995" stop-color="#FDB71B"/>
			<stop offset="1.000000" stop-color="#FFC619"/>
		</linearGradient>
		<linearGradient x1="11.713623" y1="33.797241" x2="288.385376" y2="33.797241" id="paint_linear_51_1035_0" gradientUnits="userSpaceOnUse">
			<stop stop-color="#EA422A"/>
			<stop offset="0.094788" stop-color="#EC5128"/>
			<stop offset="0.523442" stop-color="#F69020"/>
			<stop offset="0.836995" stop-color="#FDB71B"/>
			<stop offset="1.000000" stop-color="#FFC619"/>
		</linearGradient>
		<linearGradient x1="11.713509" y1="33.797241" x2="288.385254" y2="33.797241" id="paint_linear_51_1037_0" gradientUnits="userSpaceOnUse">
			<stop stop-color="#EA422A"/>
			<stop offset="0.094788" stop-color="#EC5128"/>
			<stop offset="0.523442" stop-color="#F69020"/>
			<stop offset="0.836995" stop-color="#FDB71B"/>
			<stop offset="1.000000" stop-color="#FFC619"/>
		</linearGradient>
		<linearGradient x1="11.713509" y1="33.797241" x2="288.385254" y2="33.797241" id="paint_linear_51_1038_0" gradientUnits="userSpaceOnUse">
			<stop stop-color="#EA422A"/>
			<stop offset="0.094788" stop-color="#EC5128"/>
			<stop offset="0.523442" stop-color="#F69020"/>
			<stop offset="0.836995" stop-color="#FDB71B"/>
			<stop offset="1.000000" stop-color="#FFC619"/>
		</linearGradient>
		<linearGradient x1="11.714325" y1="33.797241" x2="288.385437" y2="33.797241" id="paint_linear_51_1040_0" gradientUnits="userSpaceOnUse">
			<stop stop-color="#EA422A"/>
			<stop offset="0.094788" stop-color="#EC5128"/>
			<stop offset="0.523442" stop-color="#F69020"/>
			<stop offset="0.836995" stop-color="#FDB71B"/>
			<stop offset="1.000000" stop-color="#FFC619"/>
		</linearGradient>
		<linearGradient x1="11.714325" y1="33.797241" x2="288.385437" y2="33.797241" id="paint_linear_51_1041_0" gradientUnits="userSpaceOnUse">
			<stop stop-color="#EA422A"/>
			<stop offset="0.094788" stop-color="#EC5128"/>
			<stop offset="0.523442" stop-color="#F69020"/>
			<stop offset="0.836995" stop-color="#FDB71B"/>
			<stop offset="1.000000" stop-color="#FFC619"/>
		</linearGradient>
		<linearGradient x1="11.713028" y1="33.797241" x2="288.386047" y2="33.797241" id="paint_linear_51_1044_0" gradientUnits="userSpaceOnUse">
			<stop stop-color="#EA422A"/>
			<stop offset="0.094788" stop-color="#EC5128"/>
			<stop offset="0.523442" stop-color="#F69020"/>
			<stop offset="0.836995" stop-color="#FDB71B"/>
			<stop offset="1.000000" stop-color="#FFC619"/>
		</linearGradient>
		<linearGradient x1="11.713028" y1="33.797241" x2="288.386047" y2="33.797241" id="paint_linear_51_1046_0" gradientUnits="userSpaceOnUse">
			<stop stop-color="#EA422A"/>
			<stop offset="0.094788" stop-color="#EC5128"/>
			<stop offset="0.523442" stop-color="#F69020"/>
			<stop offset="0.836995" stop-color="#FDB71B"/>
			<stop offset="1.000000" stop-color="#FFC619"/>
		</linearGradient>
		<linearGradient x1="11.713028" y1="33.797241" x2="288.386047" y2="33.797241" id="paint_linear_51_1048_0" gradientUnits="userSpaceOnUse">
			<stop stop-color="#EA422A"/>
			<stop offset="0.094788" stop-color="#EC5128"/>
			<stop offset="0.523442" stop-color="#F69020"/>
			<stop offset="0.836995" stop-color="#FDB71B"/>
			<stop offset="1.000000" stop-color="#FFC619"/>
		</linearGradient>
		<linearGradient x1="11.713501" y1="33.797211" x2="288.385193" y2="33.797211" id="paint_linear_51_1051_0" gradientUnits="userSpaceOnUse">
			<stop stop-color="#EA422A"/>
			<stop offset="0.094788" stop-color="#EC5128"/>
			<stop offset="0.523442" stop-color="#F69020"/>
			<stop offset="0.836995" stop-color="#FDB71B"/>
			<stop offset="1.000000" stop-color="#FFC619"/>
		</linearGradient>
		<linearGradient x1="11.713501" y1="33.797211" x2="288.385193" y2="33.797211" id="paint_linear_51_1053_0" gradientUnits="userSpaceOnUse">
			<stop stop-color="#EA422A"/>
			<stop offset="0.094788" stop-color="#EC5128"/>
			<stop offset="0.523442" stop-color="#F69020"/>
			<stop offset="0.836995" stop-color="#FDB71B"/>
			<stop offset="1.000000" stop-color="#FFC619"/>
		</linearGradient>
		<linearGradient x1="11.713501" y1="33.797211" x2="288.385193" y2="33.797211" id="paint_linear_51_1055_0" gradientUnits="userSpaceOnUse">
			<stop stop-color="#EA422A"/>
			<stop offset="0.094788" stop-color="#EC5128"/>
			<stop offset="0.523442" stop-color="#F69020"/>
			<stop offset="0.836995" stop-color="#FDB71B"/>
			<stop offset="1.000000" stop-color="#FFC619"/>
		</linearGradient>
		<linearGradient x1="11.713837" y1="33.797241" x2="288.385406" y2="33.797241" id="paint_linear_51_1058_0" gradientUnits="userSpaceOnUse">
			<stop stop-color="#EA422A"/>
			<stop offset="0.094788" stop-color="#EC5128"/>
			<stop offset="0.523442" stop-color="#F69020"/>
			<stop offset="0.836995" stop-color="#FDB71B"/>
			<stop offset="1.000000" stop-color="#FFC619"/>
		</linearGradient>
		<linearGradient x1="11.713837" y1="33.797241" x2="288.385406" y2="33.797241" id="paint_linear_51_1060_0" gradientUnits="userSpaceOnUse">
			<stop stop-color="#EA422A"/>
			<stop offset="0.094788" stop-color="#EC5128"/>
			<stop offset="0.523442" stop-color="#F69020"/>
			<stop offset="0.836995" stop-color="#FDB71B"/>
			<stop offset="1.000000" stop-color="#FFC619"/>
		</linearGradient>
		<linearGradient x1="11.713837" y1="33.797241" x2="288.385406" y2="33.797241" id="paint_linear_51_1062_0" gradientUnits="userSpaceOnUse">
			<stop stop-color="#EA422A"/>
			<stop offset="0.094788" stop-color="#EC5128"/>
			<stop offset="0.523442" stop-color="#F69020"/>
			<stop offset="0.836995" stop-color="#FDB71B"/>
			<stop offset="1.000000" stop-color="#FFC619"/>
		</linearGradient>
		<linearGradient x1="11.713577" y1="33.797241" x2="288.385254" y2="33.797241" id="paint_linear_51_1065_0" gradientUnits="userSpaceOnUse">
			<stop stop-color="#EA422A"/>
			<stop offset="0.094788" stop-color="#EC5128"/>
			<stop offset="0.523442" stop-color="#F69020"/>
			<stop offset="0.836995" stop-color="#FDB71B"/>
			<stop offset="1.000000" stop-color="#FFC619"/>
		</linearGradient>
		<linearGradient x1="11.713577" y1="33.797241" x2="288.385254" y2="33.797241" id="paint_linear_51_1067_0" gradientUnits="userSpaceOnUse">
			<stop stop-color="#EA422A"/>
			<stop offset="0.094788" stop-color="#EC5128"/>
			<stop offset="0.523442" stop-color="#F69020"/>
			<stop offset="0.836995" stop-color="#FDB71B"/>
			<stop offset="1.000000" stop-color="#FFC619"/>
		</linearGradient>
		<linearGradient x1="11.713577" y1="33.797241" x2="288.385254" y2="33.797241" id="paint_linear_51_1069_0" gradientUnits="userSpaceOnUse">
			<stop stop-color="#EA422A"/>
			<stop offset="0.094788" stop-color="#EC5128"/>
			<stop offset="0.523442" stop-color="#F69020"/>
			<stop offset="0.836995" stop-color="#FDB71B"/>
			<stop offset="1.000000" stop-color="#FFC619"/>
		</linearGradient>
	</defs>
	<rect id="logo_02 1" rx="0.000000" width="292.000000" height="66.000000" transform="translate(0.500000 0.500000)" fill="#FFFFFF" fill-opacity="0"/>
	<g clip-path="url(#clip51_1030)">
		<path id="Vector" d="M30.91 31.86L42.99 9.29L36.69 9.29L27.67 26.15L18.09 9.29L11.71 9.29L24.57 31.94L27.82 37.65L39.62 58.3L46.01 58.3L30.91 31.86Z" fill="url(#paint_linear_51_1034_0)" fill-opacity="1.000000" fill-rule="nonzero"/>
		<path id="Vector" d="M30.91 31.86L42.99 9.29L36.69 9.29L27.67 26.15L18.09 9.29L11.71 9.29L24.57 31.94L27.82 37.65L39.62 58.3L46.01 58.3L30.91 31.86Z" fill="url(#paint_linear_51_1035_0)" fill-opacity="1.000000" fill-rule="nonzero"/>
		<path id="Vector" d="M65.4 9.29L65.4 21.58L73.59 40.04L59.33 40.04L59.33 45.57L75.93 45.57L81.32 58.3L87.35 58.3L65.4 9.29Z" fill="url(#paint_linear_51_1037_0)" fill-opacity="1.000000" fill-rule="nonzero"/>
		<path id="Vector" d="M65.4 9.29L65.4 21.58L73.59 40.04L59.33 40.04L59.33 45.57L75.93 45.57L81.32 58.3L87.35 58.3L65.4 9.29Z" fill="url(#paint_linear_51_1038_0)" fill-opacity="1.000000" fill-rule="nonzero"/>
		<path id="Vector" d="M266.43 9.29L266.43 21.58L274.62 40.04L260.35 40.04L260.35 45.57L276.95 45.57L282.35 58.3L288.38 58.3L266.43 9.29Z" fill="url(#paint_linear_51_1040_0)" fill-opacity="1.000000" fill-rule="nonzero"/>
		<path id="Vector" d="M266.43 9.29L266.43 21.58L274.62 40.04L260.35 40.04L260.35 45.57L276.95 45.57L282.35 58.3L288.38 58.3L266.43 9.29Z" fill="url(#paint_linear_51_1041_0)" fill-opacity="1.000000" fill-rule="nonzero"/>
		<path id="Vector" d="M137.05 9.29L142.61 9.29L142.61 58.3L137.05 58.3L137.05 9.29Z" fill="url(#paint_linear_51_1044_0)" fill-opacity="1.000000" fill-rule="evenodd"/>
		<path id="Vector" d="M137.05 9.29L142.61 9.29L142.61 58.3L137.05 58.3L137.05 9.29Z" fill="url(#paint_linear_51_1046_0)" fill-opacity="1.000000" fill-rule="evenodd"/>
		<path id="Vector" d="M137.05 9.29L142.61 9.29L142.61 58.3L137.05 58.3L137.05 9.29Z" fill="url(#paint_linear_51_1048_0)" fill-opacity="1.000000" fill-rule="evenodd"/>
		<path id="Vector" d="M155.92 58.3L162.43 58.3L192.51 9.29L156.41 9.29L156.41 14.81L182.63 14.81L155.92 58.3Z" fill="url(#paint_linear_51_1051_0)" fill-opacity="1.000000" fill-rule="nonzero"/>
		<path id="Vector" d="M155.92 58.3L162.43 58.3L192.51 9.29L156.41 9.29L156.41 14.81L182.63 14.81L155.92 58.3Z" fill="url(#paint_linear_51_1053_0)" fill-opacity="1.000000" fill-rule="nonzero"/>
		<path id="Vector" d="M155.92 58.3L162.43 58.3L192.51 9.29L156.41 9.29L156.41 14.81L182.63 14.81L155.92 58.3Z" fill="url(#paint_linear_51_1055_0)" fill-opacity="1.000000" fill-rule="nonzero"/>
		<path id="Vector" d="M201.62 58.6L206.59 27.31L221.52 59.4L236.44 27.31L241.41 58.6L247.04 58.6L239.03 8.18L221.52 45.94L204 8.18L196 58.6L201.62 58.6Z" fill="url(#paint_linear_51_1058_0)" fill-opacity="1.000000" fill-rule="nonzero"/>
		<path id="Vector" d="M201.62 58.6L206.59 27.31L221.52 59.4L236.44 27.31L241.41 58.6L247.04 58.6L239.03 8.18L221.52 45.94L204 8.18L196 58.6L201.62 58.6Z" fill="url(#paint_linear_51_1060_0)" fill-opacity="1.000000" fill-rule="nonzero"/>
		<path id="Vector" d="M201.62 58.6L206.59 27.31L221.52 59.4L236.44 27.31L241.41 58.6L247.04 58.6L239.03 8.18L221.52 45.94L204 8.18L196 58.6L201.62 58.6Z" fill="url(#paint_linear_51_1062_0)" fill-opacity="1.000000" fill-rule="nonzero"/>
		<path id="Vector" d="M106.55 31.2L97.72 31.2L116.48 58.3L123.73 58.3L108.93 36.93C115.53 35.8 120.56 30.08 120.56 23.21C120.56 15.53 114.28 9.29 106.55 9.29L100.66 9.29L100.66 15.22L106.55 15.22C110.98 15.22 114.59 18.8 114.59 23.21C114.59 27.61 110.98 31.2 106.55 31.2Z" fill="url(#paint_linear_51_1065_0)" fill-opacity="1.000000" fill-rule="nonzero"/>
		<path id="Vector" d="M106.55 31.2L97.72 31.2L116.48 58.3L123.73 58.3L108.93 36.93C115.53 35.8 120.56 30.08 120.56 23.21C120.56 15.53 114.28 9.29 106.55 9.29L100.66 9.29L100.66 15.22L106.55 15.22C110.98 15.22 114.59 18.8 114.59 23.21C114.59 27.61 110.98 31.2 106.55 31.2Z" fill="url(#paint_linear_51_1067_0)" fill-opacity="1.000000" fill-rule="nonzero"/>
		<path id="Vector" d="M106.55 31.2L97.72 31.2L116.48 58.3L123.73 58.3L108.93 36.93C115.53 35.8 120.56 30.08 120.56 23.21C120.56 15.53 114.28 9.29 106.55 9.29L100.66 9.29L100.66 15.22L106.55 15.22C110.98 15.22 114.59 18.8 114.59 23.21C114.59 27.61 110.98 31.2 106.55 31.2Z" fill="url(#paint_linear_51_1069_0)" fill-opacity="1.000000" fill-rule="nonzero"/>
	</g>
</svg>
