<svg width="373.000000" height="373.000000" viewBox="0 0 373 373" fill="none" xmlns="http://www.w3.org/2000/svg" xmlns:xlink="http://www.w3.org/1999/xlink">
	<desc>
			Created with Pixso.
	</desc>
	<defs>
		<filter id="filter_51_1000_dd" x="12.000000" y="12.000000" width="348.000000" height="348.000000" filterUnits="userSpaceOnUse" color-interpolation-filters="sRGB">
			<feFlood flood-opacity="0" result="BackgroundImageFix"/>
			<feColorMatrix in="SourceAlpha" type="matrix" values="0 0 0 0 0 0 0 0 0 0 0 0 0 0 0 0 0 0 127 0" result="hardAlpha"/>
			<feOffset dx="0" dy="17"/>
			<feGaussianBlur stdDeviation="17.3333"/>
			<feComposite in2="hardAlpha" operator="out" k2="-1" k3="1"/>
			<feColorMatrix type="matrix" values="0 0 0 0 0 0 0 0 0 0 0 0 0 0 0 0 0 0 0.58 0"/>
			<feBlend mode="normal" in2="BackgroundImageFix" result="effect_dropShadow_1"/>
			<feBlend mode="normal" in="SourceGraphic" in2="effect_dropShadow_1" result="shape"/>
		</filter>
		<filter id="filter_51_1001_dd" x="12.000000" y="12.000000" width="348.000000" height="348.000000" filterUnits="userSpaceOnUse" color-interpolation-filters="sRGB">
			<feFlood flood-opacity="0" result="BackgroundImageFix"/>
			<feColorMatrix in="SourceAlpha" type="matrix" values="0 0 0 0 0 0 0 0 0 0 0 0 0 0 0 0 0 0 127 0" result="hardAlpha"/>
			<feOffset dx="0" dy="17"/>
			<feGaussianBlur stdDeviation="17.3333"/>
			<feComposite in2="hardAlpha" operator="out" k2="-1" k3="1"/>
			<feColorMatrix type="matrix" values="0 0 0 0 0 0 0 0 0 0 0 0 0 0 0 0 0 0 0.58 0"/>
			<feBlend mode="normal" in2="BackgroundImageFix" result="effect_dropShadow_1"/>
			<feBlend mode="normal" in="SourceGraphic" in2="effect_dropShadow_1" result="shape"/>
		</filter>
		<filter id="filter_51_1002_dd" x="0.000000" y="0.000000" width="373.000000" height="373.000000" filterUnits="userSpaceOnUse" color-interpolation-filters="sRGB">
			<feFlood flood-opacity="0" result="BackgroundImageFix"/>
			<feColorMatrix in="SourceAlpha" type="matrix" values="0 0 0 0 0 0 0 0 0 0 0 0 0 0 0 0 0 0 127 0" result="hardAlpha"/>
			<feOffset dx="0" dy="17"/>
			<feGaussianBlur stdDeviation="17.3333"/>
			<feComposite in2="hardAlpha" operator="out" k2="-1" k3="1"/>
			<feColorMatrix type="matrix" values="0 0 0 0 0 0 0 0 0 0 0 0 0 0 0 0 0 0 0.58 0"/>
			<feBlend mode="normal" in2="BackgroundImageFix" result="effect_dropShadow_1"/>
			<feBlend mode="normal" in="SourceGraphic" in2="effect_dropShadow_1" result="shape"/>
		</filter>
		<filter id="filter_51_1003_dd" x="38.000000" y="39.000000" width="296.000000" height="296.000000" filterUnits="userSpaceOnUse" color-interpolation-filters="sRGB">
			<feFlood flood-opacity="0" result="BackgroundImageFix"/>
			<feColorMatrix in="SourceAlpha" type="matrix" values="0 0 0 0 0 0 0 0 0 0 0 0 0 0 0 0 0 0 127 0" result="hardAlpha"/>
			<feOffset dx="0" dy="17"/>
			<feGaussianBlur stdDeviation="17.3333"/>
			<feComposite in2="hardAlpha" operator="out" k2="-1" k3="1"/>
			<feColorMatrix type="matrix" values="0 0 0 0 0 0 0 0 0 0 0 0 0 0 0 0 0 0 0.58 0"/>
			<feBlend mode="normal" in2="BackgroundImageFix" result="effect_dropShadow_1"/>
			<feBlend mode="normal" in="SourceGraphic" in2="effect_dropShadow_1" result="shape"/>
		</filter>
		<clipPath id="clip51_1006">
			<rect id="icons8_last_24_hours 1" rx="0.000000" width="47.000000" height="47.000000" transform="translate(162.500000 31.500000)" fill="white" fill-opacity="0"/>
		</clipPath>
		<linearGradient x1="186.000000" y1="167.618896" x2="186.000000" y2="207.211349" id="paint_linear_51_1005_0" gradientUnits="userSpaceOnUse">
			<stop stop-color="#FFC619"/>
			<stop offset="1.000000" stop-color="#F69020"/>
		</linearGradient>
		<radialGradient gradientTransform="translate(186 169) rotate(90) scale(122 122)" cx="0.000000" cy="0.000000" r="1.000000" id="paint_angular_51_1001_0" gradientUnits="userSpaceOnUse">
			<stop offset="0.489041" stop-color="#F69020" stop-opacity="0.000000"/>
			<stop offset="0.503497" stop-color="#FFC619"/>
		</radialGradient>
		<radialGradient gradientTransform="translate(186.5 169.5) rotate(90) scale(134.5 134.5)" cx="0.000000" cy="0.000000" r="1.000000" id="paint_angular_51_1002_0" gradientUnits="userSpaceOnUse">
			<stop offset="0.489041" stop-color="#FFC619" stop-opacity="0.000000"/>
			<stop offset="0.503497" stop-color="#FFC619"/>
		</radialGradient>
		<radialGradient gradientTransform="translate(186 170) rotate(90) scale(96 96)" cx="0.000000" cy="0.000000" r="1.000000" id="paint_angular_51_1003_0" gradientUnits="userSpaceOnUse">
			<stop offset="0.489041" stop-color="#F69020" stop-opacity="0.000000"/>
			<stop offset="0.503497" stop-color="#F69020"/>
		</radialGradient>
	</defs>
	<path id="Можно шуметь" d="M130.92 145.08L134.06 140.19L137.34 140.19L137.34 151.39L133.74 151.39L133.74 146.27L131.9 149.11L129.96 149.11L128.12 146.25L128.12 151.39L124.52 151.39L124.52 140.19L127.8 140.19L130.92 145.08ZM143.29 151.64C140.89 151.64 138.87 150.32 138.87 147.55C138.87 144.78 140.89 143.45 143.29 143.45C145.69 143.45 147.72 144.78 147.72 147.55C147.72 150.32 145.69 151.64 143.29 151.64ZM177.23 151.64C174.83 151.64 172.81 150.32 172.81 147.55C172.81 144.78 174.83 143.45 177.23 143.45C179.63 143.45 181.66 144.78 181.66 147.55C181.66 150.32 179.63 151.64 177.23 151.64ZM226.81 151.64C224.34 151.64 221.98 150.46 221.98 147.5C221.98 144.49 224.4 143.45 226.11 143.45C229.56 143.45 230.43 146.09 229.95 148.32L225.21 148.32C225.48 148.97 226.41 149.27 227.4 149.27C228.22 149.27 228.95 149.18 229.61 148.97L229.61 151.24C228.86 151.5 228.01 151.64 226.81 151.64ZM159.83 147.58L161.83 151.39L158.33 151.39L157.14 148.94L156.65 148.94L156.65 151.39L153.4 151.39L153.4 148.94L152.91 148.94L151.72 151.39L148.22 151.39L150.22 147.58L148.3 143.71L151.8 143.71L152.99 146.32L153.4 146.32L153.4 143.71L156.65 143.71L156.65 146.32L157.06 146.32L158.25 143.71L161.75 143.71L159.83 147.58ZM166.41 148.84L166.41 151.39L163.03 151.39L163.03 143.71L166.41 143.71L166.41 146.25L167.96 146.25L167.96 143.71L171.34 143.71L171.34 151.39L167.96 151.39L167.96 148.84L166.41 148.84ZM198.92 143.71L198.92 151.39L186.52 151.39L186.52 143.71L189.9 143.71L189.9 148.7L191.03 148.7L191.03 143.71L194.41 143.71L194.41 148.7L195.56 148.7L195.56 143.71L198.92 143.71ZM203.48 143.71L205.07 147.92L206.23 143.71L209.66 143.71L206.73 151.85C205.82 154.39 204.2 155.15 202.63 155.15C202.03 155.15 201.5 155.04 200.95 154.88L200.95 152.16C201.32 152.25 201.67 152.32 202.09 152.32C202.68 152.32 203.19 152.06 203.51 151.43L200 143.71L203.48 143.71ZM213.91 148.16L213.91 151.39L210.86 151.39L210.86 143.71L213.61 143.71L215.67 147L217.75 143.71L220.51 143.71L220.51 151.39L217.45 151.39L217.45 148.16L216.26 150.04L215.1 150.04L213.91 148.16ZM236.46 146.39L236.46 151.39L233.1 151.39L233.1 146.39L231.11 146.39L231.11 143.71L238.44 143.71L238.44 146.39L236.46 146.39ZM247.95 148.52C247.95 150.12 246.86 151.39 244.68 151.39L239.82 151.39L239.82 143.71L243.19 143.71L243.19 145.68L244.68 145.68C246.86 145.68 247.95 146.92 247.95 148.52ZM225.18 146.76L227.21 146.76C227.29 146.32 227.07 145.68 226.28 145.68C225.61 145.68 225.18 146.14 225.18 146.76ZM143.29 148.86C144.14 148.86 144.42 148.27 144.42 147.55C144.42 146.83 144.14 146.24 143.29 146.24C142.46 146.24 142.17 146.83 142.17 147.55C142.17 148.27 142.46 148.86 143.29 148.86ZM177.23 148.86C178.08 148.86 178.36 148.27 178.36 147.55C178.36 146.83 178.08 146.24 177.23 146.24C176.4 146.24 176.11 146.83 176.11 147.55C176.11 148.27 176.4 148.86 177.23 148.86ZM243.74 147.72L243.18 147.72L243.18 149.24L243.74 149.24C244.31 149.24 244.62 148.94 244.62 148.49C244.62 148.03 244.31 147.72 243.74 147.72Z" fill="#FFFFFF" fill-opacity="1.000000" fill-rule="evenodd"/>
	<path id="Круглосуточно" d="M91.37 180.61L91.37 187.61L84.9 187.61L84.9 168.02L91.37 168.02L91.37 174.96L92.99 174.96L96.91 168.02L104.03 168.02L98.06 177.73L104.14 187.61L97.03 187.61L92.85 180.61L91.37 180.61ZM188.53 188.07C184.67 188.07 180.94 186.1 180.94 181.26C180.94 175.83 184.92 173.67 188.92 173.67C190.35 173.67 191.78 173.98 193.07 174.48L193.07 179.33C192.23 178.91 191.05 178.57 189.99 178.57C188.42 178.57 187.02 179.19 187.02 180.89C187.02 182.55 188.36 183.16 189.88 183.16C191.16 183.16 192.36 182.88 193.21 182.49L193.21 187.31C191.8 187.79 190.24 188.07 188.53 188.07ZM109.85 174.17L109.85 175.8C110.75 174.68 112.23 173.72 114.25 173.72C118.53 173.72 120.41 177.2 120.41 180.89C120.41 184.59 118.53 188.07 114.25 188.07C112.62 188.07 111.39 187.53 110.58 186.8L110.58 193.77L104.67 193.77L104.67 174.17L109.85 174.17ZM172.29 188.07C168.09 188.07 164.56 185.74 164.56 180.89C164.56 176.05 168.09 173.72 172.29 173.72C176.49 173.72 180.04 176.05 180.04 180.89C180.04 185.74 176.49 188.07 172.29 188.07ZM231.57 188.07C227.36 188.07 223.84 185.74 223.84 180.89C223.84 176.05 227.36 173.72 231.57 173.72C235.77 173.72 239.32 176.05 239.32 180.89C239.32 185.74 235.77 188.07 231.57 188.07ZM280.23 188.07C276.03 188.07 272.5 185.74 272.5 180.89C272.5 176.05 276.03 173.72 280.23 173.72C284.43 173.72 287.98 176.05 287.98 180.89C287.98 185.74 284.43 188.07 280.23 188.07ZM126.04 174.17L128.81 181.54L130.85 174.17L136.84 174.17L131.72 188.43C130.12 192.88 127.29 194.2 124.55 194.2C123.49 194.2 122.56 194 121.61 193.72L121.61 188.96C122.26 189.13 122.87 189.24 123.6 189.24C124.64 189.24 125.53 188.79 126.09 187.7L119.93 174.17L126.04 174.17ZM143.73 178.88L143.73 187.61L137.82 187.61L137.82 174.17L148.57 174.17L148.57 178.88L143.73 178.88ZM157.2 178.77L155.6 178.77C155.07 184.57 153.81 187.98 149.97 187.98C149.11 187.98 148.13 187.84 147.26 187.56L147.26 182.8C147.7 182.91 148.07 182.94 148.41 182.88C150.23 182.55 150.25 178.88 150.51 174.17L163.11 174.17L163.11 187.61L157.2 187.61L157.2 178.77ZM199.45 174.17L202.22 181.54L204.27 174.17L210.26 174.17L205.13 188.43C203.54 192.88 200.71 194.2 197.96 194.2C196.9 194.2 195.98 194 195.02 193.72L195.02 188.96C195.67 189.13 196.29 189.24 197.01 189.24C198.05 189.24 198.95 188.79 199.51 187.7L193.35 174.17L199.45 174.17ZM219.86 178.88L219.86 187.61L213.98 187.61L213.98 178.88L210.51 178.88L210.51 174.17L223.33 174.17L223.33 178.88L219.86 178.88ZM254.5 174.17L254.5 187.61L248.59 187.61L248.59 183.98C247.7 184.29 246.68 184.39 245.54 184.39C243.05 184.39 240.3 182.97 240.3 179.38L240.3 174.17L246.21 174.17L246.21 178.63C246.21 179.41 246.74 179.69 247.39 179.69C247.81 179.69 248.22 179.61 248.59 179.47L248.59 174.17L254.5 174.17ZM262.42 183.16L262.42 187.61L256.51 187.61L256.51 174.17L262.42 174.17L262.42 178.63L265.14 178.63L265.14 174.17L271.05 174.17L271.05 187.61L265.14 187.61L265.14 183.16L262.42 183.16ZM112.29 183.33C113.71 183.33 114.33 182.1 114.33 180.89C114.33 179.69 113.71 178.46 112.29 178.46C111.47 178.46 110.83 178.93 110.55 179.41L110.55 182.38C110.8 182.86 111.47 183.33 112.29 183.33ZM172.29 183.19C173.78 183.19 174.28 182.15 174.28 180.89C174.28 179.64 173.78 178.6 172.29 178.6C170.84 178.6 170.33 179.64 170.33 180.89C170.33 182.15 170.84 183.19 172.29 183.19ZM231.57 183.19C233.05 183.19 233.55 182.15 233.55 180.89C233.55 179.64 233.05 178.6 231.57 178.6C230.11 178.6 229.61 179.64 229.61 180.89C229.61 182.15 230.11 183.19 231.57 183.19ZM280.23 183.19C281.72 183.19 282.22 182.15 282.22 180.89C282.22 179.64 281.72 178.6 280.23 178.6C278.78 178.6 278.27 179.64 278.27 180.89C278.27 182.15 278.78 183.19 280.23 183.19Z" fill="url(#paint_linear_51_1005_0)" fill-opacity="1.000000" fill-rule="evenodd"/>
	<g filter="url(#filter_51_1000_dd)">
		<circle id="Ellipse 3" cx="186.000000" cy="169.000000" r="122.000000" fill="#FFC619" fill-opacity="0.190000"/>
	</g>
	<g filter="url(#filter_51_1001_dd)">
		<circle id="Ellipse 5" cx="186.000000" cy="169.000000" r="122.000000" fill="#FFC619" fill-opacity="0"/>
		<circle id="Ellipse 5" cx="186.000000" cy="169.000000" r="118.500000" stroke="url(#paint_angular_51_1001_0)" stroke-opacity="0.660000" stroke-width="7.000000"/>
	</g>
	<g filter="url(#filter_51_1002_dd)">
		<circle id="Ellipse 6" cx="186.500000" cy="169.500000" r="134.500000" fill="#FFC619" fill-opacity="0"/>
		<circle id="Ellipse 6" cx="186.500000" cy="169.500000" r="133.500000" stroke="url(#paint_angular_51_1002_0)" stroke-opacity="0.400000" stroke-width="2.000000"/>
	</g>
	<g filter="url(#filter_51_1003_dd)">
		<circle id="Ellipse 7" cx="186.000000" cy="170.000000" r="96.000000" fill="#FFC619" fill-opacity="0"/>
		<circle id="Ellipse 7" cx="186.000000" cy="170.000000" r="95.000000" stroke="url(#paint_angular_51_1003_0)" stroke-opacity="0.400000" stroke-width="2.000000"/>
	</g>
	<rect id="icons8_last_24_hours 1" rx="0.000000" width="47.000000" height="47.000000" transform="translate(162.500000 31.500000)" fill="#FFFFFF" fill-opacity="0"/>
	<g clip-path="url(#clip51_1006)">
		<path id="Vector" d="M169 55C169 64.4 176.6 72 186 72C195.4 72 203 64.4 203 55C203 45.6 195.4 38 186 38C176.6 38 169 45.6 169 55Z" fill="#131517" fill-opacity="1.000000" fill-rule="nonzero"/>
		<path id="Vector" d="M186 75C175 75 166 66 166 55C166 44 175 35 186 35C190.7 35 195.3 36.7 198.9 39.8L196.3 42.8C193.5 40.3 189.8 39 186 39C177.2 39 170 46.2 170 55C170 63.8 177.2 71 186 71L186 75Z" fill="#606571" fill-opacity="1.000000" fill-rule="nonzero"/>
		<path id="Vector" d="M189 43L181 37L189 31L189 43Z" fill="#FFC619" fill-opacity="1.000000" fill-rule="nonzero"/>
		<path id="Vector" d="M173 55C173 55.6 172.6 56 172 56L169 56L169 54L172 54C172.6 54 173 54.4 173 55ZM186 68C185.4 68 185 68.4 185 69L185 72L187 72L187 69C187 68.4 186.6 68 186 68ZM200 54C199.4 54 199 54.4 199 55C199 55.6 199.4 56 200 56L203 56L203 54L200 54Z" fill="#FFFFFF" fill-opacity="1.000000" fill-rule="nonzero"/>
		<path id="Vector" d="M186 75C175 75 166 66 166 55C166 50.3 167.7 45.7 170.8 42.1L173.8 44.7C171.3 47.5 170 51.2 170 55C170 63.8 177.2 71 186 71C194.8 71 202 63.8 202 55C202 46.2 194.8 39 186 39L186 35C197 35 206 44 206 55C206 66 197 75 186 75Z" fill="#FFC619" fill-opacity="1.000000" fill-rule="nonzero"/>
		<path id="Vector" d="M185 61L177 61L177 59.2L180.8 55.2C181.7 54.1 182.2 53.3 182.2 52.7C182.2 52.2 182.1 51.8 181.9 51.5C181.7 51.2 181.4 51.1 180.9 51.1C180.5 51.1 180.1 51.3 179.9 51.6C179.6 52 179.5 52.4 179.5 52.9L177 52.9C177 52.2 177.2 51.5 177.5 50.9C177.9 50.3 178.4 49.8 179 49.5C179.6 49.2 180.1 49 180.9 49C182.2 49 183.2 49.3 183.9 49.9C184.6 50.5 184.9 51.3 184.9 52.4C184.9 52.9 184.8 53.3 184.6 53.8C184.4 54.2 184.2 54.7 183.8 55.2C183.4 55.7 182.8 56.3 182 57.1L180.6 59L185 59L185 61ZM193.8 57L195 57L195 59L193.8 59L193.8 61L191 61L191 59L186.4 59L186.2 57.4L191 49L193.8 49L193.8 57ZM188.8 57L191 57L191 52.6L190.8 52.9L188.8 57Z" fill="#FFFFFF" fill-opacity="1.000000" fill-rule="nonzero"/>
	</g>
</svg>
