<svg width="83.000000" height="83.000000" viewBox="0 0 83 83" fill="none" xmlns="http://www.w3.org/2000/svg" xmlns:xlink="http://www.w3.org/1999/xlink">
	<desc>
			Created with Pixso.
	</desc>
	<defs>
		<clipPath id="clip51_1461">
			<rect id="icons8_telegram_app 1" rx="0.000000" width="34.000000" height="34.000000" transform="translate(24.500000 24.500000)" fill="white" fill-opacity="0"/>
		</clipPath>
		<linearGradient x1="41.500011" y1="0.000000" x2="0.000019" y2="55.000008" id="paint_linear_51_1460_0" gradientUnits="userSpaceOnUse">
			<stop stop-color="#FFC619"/>
			<stop offset="0.463542" stop-color="#F69020"/>
			<stop offset="1.000000" stop-color="#EC5128"/>
		</linearGradient>
	</defs>
	<circle id="Ellipse 17" cx="41.500000" cy="41.500000" r="41.500000" fill="url(#paint_linear_51_1460_0)" fill-opacity="1.000000"/>
	<rect id="icons8_telegram_app 1" rx="0.000000" width="34.000000" height="34.000000" transform="translate(24.500000 24.500000)" fill="#FFFFFF" fill-opacity="0"/>
	<g clip-path="url(#clip51_1461)">
		<path id="Vector" d="M53.34 28.64C52.96 28.66 52.61 28.77 52.3 28.9C52.01 29.01 50.89 29.49 49.14 30.24C47.38 31 45.06 31.99 42.58 33.06C37.62 35.19 32.05 37.59 29.19 38.82C29.09 38.87 28.71 38.99 28.32 39.3C27.92 39.61 27.5 40.25 27.5 40.97C27.5 41.54 27.77 42.12 28.12 42.46C28.46 42.8 28.83 42.97 29.14 43.1C30.28 43.57 33.82 45.01 34.49 45.29C34.72 46.01 36 49.92 36.3 50.88C36.5 51.51 36.68 51.91 36.92 52.23C37.05 52.38 37.19 52.52 37.36 52.63C37.43 52.67 37.5 52.7 37.58 52.74L37.58 52.74C37.6 52.74 37.61 52.76 37.63 52.76C37.66 52.77 37.69 52.78 37.73 52.79C37.91 52.84 38.09 52.88 38.25 52.88C38.93 52.88 39.35 52.5 39.35 52.5L39.37 52.48L42.89 49.45L47.14 53.48C47.2 53.56 47.76 54.33 49 54.33C49.73 54.33 50.31 53.96 50.68 53.57C51.06 53.18 51.29 52.77 51.39 52.25L51.39 52.25C51.48 51.76 55.4 31.61 55.4 31.61L55.4 31.64C55.51 31.11 55.54 30.62 55.42 30.14C55.29 29.66 54.95 29.2 54.54 28.95C54.13 28.7 53.72 28.63 53.34 28.64ZM53.12 31.08C53.12 31.12 53.13 31.1 53.12 31.14L53.12 31.15L53.11 31.17C53.11 31.17 49.24 51.06 49.09 51.82C49.1 51.76 49.06 51.87 49.01 51.94C48.94 51.89 48.8 51.83 48.8 51.83L48.77 51.81L42.96 46.3L38.84 49.86L40.07 44.96C40.07 44.96 47.72 37.04 48.18 36.58C48.55 36.21 48.62 36.08 48.62 35.96C48.62 35.79 48.54 35.66 48.34 35.66C48.16 35.66 47.92 35.84 47.79 35.92C46.12 36.98 38.78 41.26 35.49 43.17C34.97 42.96 31.33 41.47 30.1 40.97C30.11 40.97 30.11 40.97 30.12 40.96C32.97 39.74 38.55 37.34 43.5 35.2C45.98 34.14 48.31 33.14 50.06 32.39C51.79 31.65 52.99 31.14 53.12 31.08Z" fill="#2C383F" fill-opacity="1.000000" fill-rule="nonzero"/>
	</g>
</svg>
