<svg width="25" height="43" viewBox="0 0 25 43" fill="none" xmlns="http://www.w3.org/2000/svg">
<path d="M3.10016 0.820068C1.55343 0.820068 0.280162 2.09334 0.280162 3.64007V6.30218C0.263384 6.40369 0.263384 6.50727 0.280162 6.60878V35.4422C0.263384 35.5437 0.263384 35.6473 0.280162 35.7488V39.3601C0.280162 40.9068 1.55343 42.1801 3.10016 42.1801H21.9002C23.4469 42.1801 24.7202 40.9068 24.7202 39.3601V35.758C24.7369 35.6564 24.7369 35.5529 24.7202 35.4514V6.61796C24.7369 6.51645 24.7369 6.41287 24.7202 6.31136V3.64007C24.7202 2.09334 23.4469 0.820068 21.9002 0.820068H3.10016ZM3.10016 2.70007H21.9002C22.4214 2.70007 22.8402 3.1188 22.8402 3.64007V5.52007H2.16016V3.64007C2.16016 3.1188 2.57889 2.70007 3.10016 2.70007ZM2.16016 7.40007H22.8402V34.6601H2.16016V7.40007ZM18.6818 16.7597L10.1153 25.3262L6.30571 21.5166L4.98934 22.833L10.1153 27.9589L19.9981 18.076L18.6818 16.7597ZM2.16016 36.5401H22.8402V39.3601C22.8402 39.8813 22.4214 40.3001 21.9002 40.3001H3.10016C2.57889 40.3001 2.16016 39.8813 2.16016 39.3601V36.5401ZM9.68016 37.4801C9.5556 37.4783 9.43193 37.5013 9.31634 37.5478C9.20075 37.5942 9.09554 37.6632 9.00684 37.7506C8.91813 37.8381 8.84769 37.9423 8.79961 38.0572C8.75153 38.1722 8.72677 38.2955 8.72677 38.4201C8.72677 38.5446 8.75153 38.668 8.79961 38.7829C8.84769 38.8978 8.91813 39.002 9.00684 39.0895C9.09554 39.177 9.20075 39.2459 9.31634 39.2924C9.43193 39.3388 9.5556 39.3618 9.68016 39.3601H15.3202C15.4447 39.3618 15.5684 39.3388 15.684 39.2924C15.7996 39.2459 15.9048 39.177 15.9935 39.0895C16.0822 39.002 16.1526 38.8978 16.2007 38.7829C16.2488 38.668 16.2736 38.5446 16.2736 38.4201C16.2736 38.2955 16.2488 38.1722 16.2007 38.0572C16.1526 37.9423 16.0822 37.8381 15.9935 37.7506C15.9048 37.6632 15.7996 37.5942 15.684 37.5478C15.5684 37.5013 15.4447 37.4783 15.3202 37.4801H9.68016Z" fill="url(#paint0_linear_53_1511)"/>
<defs>
<linearGradient id="paint0_linear_53_1511" x1="12.5002" y1="0.820068" x2="12.5002" y2="42.1801" gradientUnits="userSpaceOnUse">
<stop stop-color="#FFC619"/>
<stop offset="0.473958" stop-color="#F69020"/>
<stop offset="1" stop-color="#EA422A"/>
</linearGradient>
</defs>
</svg>
