<svg width="40" height="38" viewBox="0 0 40 38" fill="none" xmlns="http://www.w3.org/2000/svg">
<path d="M4.74014 0.280029C2.4794 0.280029 0.640137 2.11929 0.640137 4.38003V24.06C0.640137 26.3208 2.4794 28.16 4.74014 28.16H8.13545C8.41343 30.5347 7.71209 32.1441 5.95893 33.1969C5.64323 33.3864 5.49217 33.7644 5.59057 34.1194C5.68815 34.4745 6.01196 34.72 6.38014 34.72C8.47934 34.72 13.5204 34.0681 15.9607 28.16H24.8093L26.4365 26.52H15.4001C15.0557 26.52 14.7495 26.7343 14.6314 27.0566C13.2849 30.7269 10.8237 32.186 8.80811 32.7469C9.77571 31.3135 10.0581 29.4542 9.64732 27.1927C9.57598 26.8032 9.2362 26.52 8.84014 26.52H4.74014C3.38386 26.52 2.28014 25.4163 2.28014 24.06V4.38003C2.28014 3.02375 3.38386 1.92003 4.74014 1.92003H34.2601C35.6164 1.92003 36.7201 3.02375 36.7201 4.38003V18.3441C37.2999 18.3523 37.8509 18.452 38.3601 18.6307V4.38003C38.3601 2.11929 36.5209 0.280029 34.2601 0.280029H4.74014ZM36.6385 19.9809C35.8185 19.9809 35.0795 20.3085 34.4235 20.8825L34.2601 20.9642L34.1785 21.0459L33.9318 21.2925L33.3585 21.8659L33.1935 22.0308L23.6001 31.7059C23.5181 31.7879 23.4355 31.9522 23.3535 32.0342L21.9601 36.9542C21.7961 37.3642 22.0415 37.8572 22.5335 37.9392C22.6975 38.0212 22.8615 38.0212 22.9435 37.9392L27.8635 36.6259C28.0275 36.6259 28.1095 36.5448 28.2735 36.3808L38.7701 25.8842L39.0168 25.7208C40.3288 24.4088 40.3288 22.2762 39.0168 20.9642C38.3608 20.2262 37.4585 19.9809 36.6385 19.9809ZM36.6385 21.6208C37.0485 21.6208 37.5405 21.7845 37.8685 22.1125C38.5245 22.7685 38.5241 23.7532 37.9501 24.4092L35.5718 22.0308C35.8998 21.7848 36.2285 21.6208 36.6385 21.6208ZM34.3418 23.1792L36.8018 25.6392L27.8635 34.5759L25.4035 32.1992L34.3418 23.1792ZM24.5835 33.7559L26.3068 35.4792L23.9285 36.1342L24.5835 33.7559Z" fill="url(#paint0_linear_53_1523)"/>
<defs>
<linearGradient id="paint0_linear_53_1523" x1="20.3205" y1="0.280029" x2="20.3205" y2="38.0007" gradientUnits="userSpaceOnUse">
<stop stop-color="#FFC619"/>
<stop offset="0.494792" stop-color="#F69020"/>
<stop offset="1" stop-color="#EA422A"/>
</linearGradient>
</defs>
</svg>
