<svg width="41" height="41" viewBox="0 0 41 41" fill="none" xmlns="http://www.w3.org/2000/svg">
<path d="M23.2164 -0.0256028C22.973 0.00642845 22.7552 0.147366 22.6271 0.358772C22.1914 0.989788 20.9038 1.58237 19.5777 1.64002C18.2516 1.69768 17.0536 1.28768 16.5283 0.410022C16.3618 0.108929 16.0222 -0.054431 15.6827 2.21953e-05C15.2375 0.0672879 14.93 0.477288 14.9908 0.922522C15.1606 2.46002 14.757 3.4594 14.3246 4.12565C13.8922 4.7919 13.5046 5.04815 13.5046 5.04815C13.2323 5.19229 13.0625 5.47737 13.0657 5.78487C13.0689 6.09237 13.2451 6.37104 13.5238 6.50877C13.7993 6.64651 14.1292 6.61448 14.3758 6.4319C14.3758 6.4319 15.1061 5.95463 15.7083 5.02252C16.0927 4.42994 16.3778 3.55869 16.5283 2.56252C17.4572 3.10065 18.5783 3.32487 19.6546 3.28002C20.8205 3.23198 21.8711 2.82518 22.7808 2.2294C23.0082 2.89565 23.3478 3.50424 23.8571 3.94627C24.6995 4.67658 25.8494 5.00971 27.1114 4.92002C27.5631 4.89119 27.909 4.50041 27.8802 4.04877C27.8514 3.59713 27.4606 3.25119 27.0089 3.28002C26.0929 3.34408 25.4042 3.10065 24.9333 2.69065C24.4625 2.28065 24.1646 1.67846 24.1389 0.794397C24.1422 0.557366 24.0397 0.333147 23.8635 0.176194C23.6873 0.0192409 23.4503 -0.054431 23.2164 -0.0256028ZM32.0827 4.35627C32.0571 4.36268 32.0314 4.37229 32.0058 4.3819L19.6546 7.84127C19.2638 7.95338 19.0107 8.33455 19.0652 8.73815L9.17395 5.97065C9.07465 5.94182 8.96895 5.93541 8.86645 5.94502C8.56856 5.98026 8.31231 6.17565 8.2002 6.45752C8.2002 6.45752 5.66012 13.1617 4.74082 16.4513C3.98168 19.1707 3.84395 22.0215 4.5102 24.4206C5.10278 26.5635 6.41606 28.3733 8.48207 29.2381L6.8677 35.055C6.23348 34.9173 5.62809 34.8084 5.07395 34.7731C4.29239 34.7219 3.5909 34.7635 2.9727 34.9013C1.73629 35.1799 0.778559 35.8878 0.487074 36.9256C0.371762 37.3581 0.621606 37.8001 1.05082 37.925L11.9158 40.9744C12.1272 41.0385 12.3547 41.0128 12.5468 40.9071C12.739 40.8014 12.88 40.6221 12.9408 40.4106C13.2291 39.3728 12.7518 38.2646 11.8389 37.3869C11.0606 36.6374 9.91067 35.9935 8.43082 35.4906L10.0708 29.6738C10.3943 29.725 10.705 29.7763 11.0189 29.7763C13.1779 29.7763 15.0837 28.6488 16.5796 26.9831C18.0754 25.3175 19.2157 23.0785 19.8852 20.6794C20.1607 19.696 20.481 18.3667 20.7821 16.9894C20.9582 17.7614 21.1312 18.5269 21.2946 19.1163C21.964 21.5122 23.1043 23.7288 24.6002 25.3944C26.0961 27.06 28.0019 28.1875 30.1608 28.1875C30.4811 28.1875 30.8047 28.1395 31.1346 28.085L32.7233 33.9019C31.2563 34.4048 30.116 35.055 29.3408 35.7981C28.4279 36.6758 27.9763 37.7841 28.2646 38.8219C28.3895 39.2511 28.8315 39.501 29.2639 39.3856L40.1289 36.3619C40.3404 36.301 40.5197 36.1601 40.6254 35.9679C40.7311 35.7757 40.7568 35.5483 40.6927 35.3369C40.4044 34.2959 39.4435 33.5912 38.2071 33.3125C37.5889 33.1748 36.8874 33.1331 36.1058 33.1844C35.5517 33.2196 34.9463 33.3285 34.3121 33.4663L32.6977 27.6494C34.7637 26.7846 36.077 24.9748 36.6696 22.8319C37.3358 20.4328 37.1981 17.6076 36.4389 14.8881C35.5197 11.5985 32.9796 4.8944 32.9796 4.8944C32.8547 4.55487 32.5215 4.33385 32.1596 4.35627C32.1339 4.35627 32.1083 4.35627 32.0827 4.35627ZM31.7239 6.17565C31.9578 6.80026 33.0789 9.78557 33.979 12.4794H21.7046C21.8615 11.6658 22.1146 10.3525 22.1146 10.3525C22.1818 9.93932 21.9288 9.54213 21.5252 9.43002L20.8077 9.22502C20.8045 9.21541 20.8109 9.20901 20.8077 9.1994L31.7239 6.17565ZM9.48145 7.7644L20.3464 10.7881C20.26 11.2398 19.9332 12.9791 19.5264 14.9394H6.94457C7.88309 12.0502 9.222 8.45948 9.48145 7.7644ZM21.8071 14.1194H34.4914C34.6164 14.523 34.7541 14.981 34.8502 15.3238C35.5421 17.8062 35.6638 20.3847 35.1064 22.3963C34.5491 24.4078 33.4248 25.83 31.4933 26.3681C31.0385 26.4963 30.5868 26.5475 30.1608 26.5475C28.5689 26.5475 27.0858 25.7179 25.8046 24.2925C24.5233 22.8671 23.4951 20.8428 22.8833 18.655C22.5662 17.5179 22.169 15.8074 21.8071 14.1194ZM6.43207 16.5794H19.1677C18.873 17.9311 18.5719 19.2604 18.2964 20.2438C17.6847 22.4347 16.6564 24.4559 15.3752 25.8813C14.0939 27.3067 12.6109 28.1363 11.0189 28.1363C10.5929 28.1363 10.1669 28.0594 9.71207 27.9313C7.78059 27.3931 6.65629 25.971 6.09895 23.9594C5.54161 21.9478 5.6377 19.3949 6.32957 16.9125C6.3552 16.8164 6.40325 16.6787 6.43207 16.5794ZM36.2083 34.8244C36.8586 34.7828 37.4159 34.8308 37.8483 34.9269C38.0886 34.9813 38.1975 35.0582 38.3608 35.1319L30.1608 37.4381C30.2633 37.2908 30.3178 37.1467 30.4939 36.9769C31.1346 36.3619 32.2653 35.7053 33.9533 35.2344C34.7957 35.0006 35.5581 34.866 36.2083 34.8244ZM4.07457 36.4131C4.35004 36.3939 4.64473 36.3907 4.97145 36.4131C5.62168 36.4548 6.38403 36.5861 7.22645 36.8231C8.9145 37.294 10.0708 37.9506 10.7114 38.5656C10.8908 38.7386 10.9421 38.8764 11.0446 39.0269L2.81895 36.7206C2.98231 36.647 3.09121 36.5701 3.33145 36.5156C3.54606 36.4676 3.79911 36.4324 4.07457 36.4131Z" fill="url(#paint0_linear_53_1535)"/>
<defs>
<linearGradient id="paint0_linear_53_1535" x1="20.5932" y1="-0.0317383" x2="20.5932" y2="41.0092" gradientUnits="userSpaceOnUse">
<stop stop-color="#FFC619"/>
<stop offset="0.494792" stop-color="#F69020"/>
<stop offset="1" stop-color="#EA422A"/>
</linearGradient>
</defs>
</svg>
