<svg width="37" height="37" viewBox="0 0 37 37" fill="none" xmlns="http://www.w3.org/2000/svg">
<path d="M18.4269 0.535734C18.3934 0.541828 18.3599 0.550968 18.3294 0.560109C18.2258 0.581437 18.1253 0.621046 18.0369 0.681984L1.0719 6.84886C0.764163 6.96159 0.560022 7.25409 0.560022 7.58011V28.4451C0.502131 28.6553 0.535647 28.8808 0.651429 29.0667C0.76721 29.2525 0.953069 29.3805 1.1694 29.4201H1.19377C1.21815 29.4292 1.24252 29.4384 1.2669 29.4445L18.2563 36.367C18.4513 36.4492 18.6706 36.4492 18.8656 36.367L35.9525 29.3714C35.9769 29.3653 36.0013 29.3561 36.0256 29.347C36.0988 29.3074 36.1628 29.2586 36.2206 29.2007C36.2298 29.2007 36.2359 29.2007 36.245 29.2007C36.4583 28.9935 36.5345 28.6797 36.44 28.3964V7.58011C36.44 7.25409 36.2359 6.96159 35.9281 6.84886L18.9388 0.681984C18.9235 0.672843 18.9053 0.663703 18.89 0.657609L18.8656 0.633234C18.8352 0.624093 18.8017 0.614953 18.7681 0.608859C18.7529 0.599718 18.7346 0.590578 18.7194 0.584484C18.7103 0.584484 18.7042 0.584484 18.695 0.584484C18.6798 0.575343 18.6615 0.566203 18.6463 0.560109C18.5762 0.541828 18.5 0.532687 18.4269 0.535734ZM17.72 2.46136V21.8639L2.12002 27.5189V8.11636L17.72 2.46136ZM19.28 2.46136L34.88 8.11636V27.5189L30.98 26.1051V12.5039C30.98 12.1778 30.7759 11.8853 30.4681 11.7726L23.4481 9.18886C23.3232 9.14011 23.1892 9.12183 23.0581 9.14011C22.6742 9.20105 22.3939 9.53315 22.4 9.92011V22.9851L19.28 21.8639V2.46136ZM13.7225 9.14011C13.6555 9.14925 13.5915 9.16448 13.5275 9.18886L6.50752 11.992C6.20893 12.1108 6.01698 12.4033 6.02002 12.7232V20.5232C6.01698 20.7853 6.14494 21.029 6.36127 21.1753C6.5776 21.3215 6.85182 21.352 7.09252 21.2545L14.1125 18.5001C14.4111 18.3813 14.6031 18.0888 14.6 17.7689V9.92011C14.6031 9.69464 14.5056 9.48136 14.338 9.33206C14.1704 9.18277 13.9449 9.11269 13.7225 9.14011ZM23.96 11.0414L29.42 13.0401V25.5445L23.96 23.5701V11.0414ZM13.04 11.0657V17.2326L7.58002 19.402V13.2351L13.04 11.0657ZM18.5 23.2289L33.4906 28.6645L18.5488 34.7826L3.53377 28.6645L18.5 23.2289Z" fill="url(#paint0_linear_53_1499)"/>
<defs>
<linearGradient id="paint0_linear_53_1499" x1="18.5061" y1="0.535156" x2="18.5061" y2="36.4287" gradientUnits="userSpaceOnUse">
<stop stop-color="#FFC619"/>
<stop offset="0.489583" stop-color="#F69020"/>
<stop offset="1" stop-color="#EA422A"/>
</linearGradient>
</defs>
</svg>
