<svg width="1596" height="309" viewBox="0 0 1596 309" fill="none" xmlns="http://www.w3.org/2000/svg">
<path d="M11.0931 303.379C38.2587 308.371 90.9729 307.069 84.5056 261.923C78.0383 216.777 142.24 199.925 175.15 197.142" stroke="#FFC619" stroke-width="3"/>
<path d="M185.1 195.658L172.831 201.932L171.938 191.578L185.1 195.658Z" fill="#FFC619"/>
<path d="M358.196 47.8344C384.469 39.3137 436.897 33.6733 436.422 79.2778C435.946 124.882 501.807 133.147 534.797 131.578" stroke="#FFC619" stroke-width="3"/>
<path d="M544.856 131.74L531.868 127.135L532.344 137.516L544.856 131.74Z" fill="#FFC619"/>
<path d="M692.262 238.311C717.821 248.782 769.676 258.348 772.63 212.836C775.585 167.325 841.88 164.035 874.659 168.079" stroke="#FFC619" stroke-width="3"/>
<path d="M884.702 168.673L871.404 172.29L872.66 161.974L884.702 168.673Z" fill="#FFC619"/>
<path d="M1078.56 44.4785C1103.93 33.5563 1155.61 23.0747 1159.37 68.5265C1163.12 113.978 1229.47 116.095 1262.17 111.471" stroke="#FFC619" stroke-width="3"/>
<path d="M1272.2 110.7L1258.84 107.319L1260.28 117.611L1272.2 110.7Z" fill="#FFC619"/>
<path d="M1399.56 233.198C1424.93 244.121 1476.61 254.602 1480.37 209.15C1484.12 163.699 1550.47 161.582 1583.17 166.206" stroke="#FFC619" stroke-width="3"/>
<path d="M1593.2 166.977L1579.84 170.358L1581.28 160.066L1593.2 166.977Z" fill="#FFC619"/>
</svg>
