<svg width="21.384766" height="21.384827" viewBox="0 0 21.3848 21.3848" fill="none" xmlns="http://www.w3.org/2000/svg" xmlns:xlink="http://www.w3.org/1999/xlink">
	<desc>
			Created with Pixso.
	</desc>
	<defs/>
	<path id="Vector" d="M18.82 0.43C19.4 -0.15 20.35 -0.15 20.94 0.43C21.53 1.02 21.53 1.97 20.94 2.56L12.81 10.69L20.94 18.82C21.53 19.4 21.53 20.35 20.94 20.94C20.35 21.53 19.41 21.53 18.82 20.94L10.69 12.81L2.56 20.94C1.97 21.53 1.02 21.53 0.43 20.94C-0.15 20.35 -0.15 19.4 0.43 18.82L8.57 10.69L0.43 2.56C-0.15 1.97 -0.15 1.02 0.43 0.43C1.02 -0.15 1.97 -0.15 2.56 0.43L10.69 8.57L18.82 0.43Z" fill="#F69020" fill-opacity="1.000000" fill-rule="evenodd"/>
</svg>
