<svg width="276.671875" height="51.218750" viewBox="0 0 276.672 51.2188" fill="none" xmlns="http://www.w3.org/2000/svg" xmlns:xlink="http://www.w3.org/1999/xlink">
	<desc>
			Created with Pixso.
	</desc>
	<defs>
		<linearGradient x1="0.000000" y1="25.609253" x2="276.671753" y2="25.609253" id="paint_linear_51_1421_0" gradientUnits="userSpaceOnUse">
			<stop stop-color="#EA422A"/>
			<stop offset="0.094788" stop-color="#EC5128"/>
			<stop offset="0.523442" stop-color="#F69020"/>
			<stop offset="0.836995" stop-color="#FDB71B"/>
			<stop offset="1.000000" stop-color="#FFC619"/>
		</linearGradient>
		<linearGradient x1="0.000000" y1="25.609253" x2="276.671753" y2="25.609253" id="paint_linear_51_1422_0" gradientUnits="userSpaceOnUse">
			<stop stop-color="#EA422A"/>
			<stop offset="0.094788" stop-color="#EC5128"/>
			<stop offset="0.523442" stop-color="#F69020"/>
			<stop offset="0.836995" stop-color="#FDB71B"/>
			<stop offset="1.000000" stop-color="#FFC619"/>
		</linearGradient>
		<linearGradient x1="-0.000114" y1="25.609253" x2="276.671631" y2="25.609253" id="paint_linear_51_1424_0" gradientUnits="userSpaceOnUse">
			<stop stop-color="#EA422A"/>
			<stop offset="0.094788" stop-color="#EC5128"/>
			<stop offset="0.523442" stop-color="#F69020"/>
			<stop offset="0.836995" stop-color="#FDB71B"/>
			<stop offset="1.000000" stop-color="#FFC619"/>
		</linearGradient>
		<linearGradient x1="-0.000114" y1="25.609253" x2="276.671631" y2="25.609253" id="paint_linear_51_1425_0" gradientUnits="userSpaceOnUse">
			<stop stop-color="#EA422A"/>
			<stop offset="0.094788" stop-color="#EC5128"/>
			<stop offset="0.523442" stop-color="#F69020"/>
			<stop offset="0.836995" stop-color="#FDB71B"/>
			<stop offset="1.000000" stop-color="#FFC619"/>
		</linearGradient>
		<linearGradient x1="0.000702" y1="25.609253" x2="276.671814" y2="25.609253" id="paint_linear_51_1427_0" gradientUnits="userSpaceOnUse">
			<stop stop-color="#EA422A"/>
			<stop offset="0.094788" stop-color="#EC5128"/>
			<stop offset="0.523442" stop-color="#F69020"/>
			<stop offset="0.836995" stop-color="#FDB71B"/>
			<stop offset="1.000000" stop-color="#FFC619"/>
		</linearGradient>
		<linearGradient x1="0.000702" y1="25.609253" x2="276.671814" y2="25.609253" id="paint_linear_51_1428_0" gradientUnits="userSpaceOnUse">
			<stop stop-color="#EA422A"/>
			<stop offset="0.094788" stop-color="#EC5128"/>
			<stop offset="0.523442" stop-color="#F69020"/>
			<stop offset="0.836995" stop-color="#FDB71B"/>
			<stop offset="1.000000" stop-color="#FFC619"/>
		</linearGradient>
		<linearGradient x1="-0.000595" y1="25.609253" x2="276.672424" y2="25.609253" id="paint_linear_51_1431_0" gradientUnits="userSpaceOnUse">
			<stop stop-color="#EA422A"/>
			<stop offset="0.094788" stop-color="#EC5128"/>
			<stop offset="0.523442" stop-color="#F69020"/>
			<stop offset="0.836995" stop-color="#FDB71B"/>
			<stop offset="1.000000" stop-color="#FFC619"/>
		</linearGradient>
		<linearGradient x1="-0.000595" y1="25.609253" x2="276.672424" y2="25.609253" id="paint_linear_51_1433_0" gradientUnits="userSpaceOnUse">
			<stop stop-color="#EA422A"/>
			<stop offset="0.094788" stop-color="#EC5128"/>
			<stop offset="0.523442" stop-color="#F69020"/>
			<stop offset="0.836995" stop-color="#FDB71B"/>
			<stop offset="1.000000" stop-color="#FFC619"/>
		</linearGradient>
		<linearGradient x1="-0.000595" y1="25.609253" x2="276.672424" y2="25.609253" id="paint_linear_51_1435_0" gradientUnits="userSpaceOnUse">
			<stop stop-color="#EA422A"/>
			<stop offset="0.094788" stop-color="#EC5128"/>
			<stop offset="0.523442" stop-color="#F69020"/>
			<stop offset="0.836995" stop-color="#FDB71B"/>
			<stop offset="1.000000" stop-color="#FFC619"/>
		</linearGradient>
		<linearGradient x1="-0.000122" y1="25.609222" x2="276.671570" y2="25.609222" id="paint_linear_51_1438_0" gradientUnits="userSpaceOnUse">
			<stop stop-color="#EA422A"/>
			<stop offset="0.094788" stop-color="#EC5128"/>
			<stop offset="0.523442" stop-color="#F69020"/>
			<stop offset="0.836995" stop-color="#FDB71B"/>
			<stop offset="1.000000" stop-color="#FFC619"/>
		</linearGradient>
		<linearGradient x1="-0.000122" y1="25.609222" x2="276.671570" y2="25.609222" id="paint_linear_51_1440_0" gradientUnits="userSpaceOnUse">
			<stop stop-color="#EA422A"/>
			<stop offset="0.094788" stop-color="#EC5128"/>
			<stop offset="0.523442" stop-color="#F69020"/>
			<stop offset="0.836995" stop-color="#FDB71B"/>
			<stop offset="1.000000" stop-color="#FFC619"/>
		</linearGradient>
		<linearGradient x1="-0.000122" y1="25.609222" x2="276.671570" y2="25.609222" id="paint_linear_51_1442_0" gradientUnits="userSpaceOnUse">
			<stop stop-color="#EA422A"/>
			<stop offset="0.094788" stop-color="#EC5128"/>
			<stop offset="0.523442" stop-color="#F69020"/>
			<stop offset="0.836995" stop-color="#FDB71B"/>
			<stop offset="1.000000" stop-color="#FFC619"/>
		</linearGradient>
		<linearGradient x1="0.000214" y1="25.609497" x2="276.671783" y2="25.609497" id="paint_linear_51_1445_0" gradientUnits="userSpaceOnUse">
			<stop stop-color="#EA422A"/>
			<stop offset="0.094788" stop-color="#EC5128"/>
			<stop offset="0.523442" stop-color="#F69020"/>
			<stop offset="0.836995" stop-color="#FDB71B"/>
			<stop offset="1.000000" stop-color="#FFC619"/>
		</linearGradient>
		<linearGradient x1="0.000214" y1="25.609497" x2="276.671783" y2="25.609497" id="paint_linear_51_1447_0" gradientUnits="userSpaceOnUse">
			<stop stop-color="#EA422A"/>
			<stop offset="0.094788" stop-color="#EC5128"/>
			<stop offset="0.523442" stop-color="#F69020"/>
			<stop offset="0.836995" stop-color="#FDB71B"/>
			<stop offset="1.000000" stop-color="#FFC619"/>
		</linearGradient>
		<linearGradient x1="0.000214" y1="25.609497" x2="276.671783" y2="25.609497" id="paint_linear_51_1449_0" gradientUnits="userSpaceOnUse">
			<stop stop-color="#EA422A"/>
			<stop offset="0.094788" stop-color="#EC5128"/>
			<stop offset="0.523442" stop-color="#F69020"/>
			<stop offset="0.836995" stop-color="#FDB71B"/>
			<stop offset="1.000000" stop-color="#FFC619"/>
		</linearGradient>
		<linearGradient x1="-0.000046" y1="25.609253" x2="276.671631" y2="25.609253" id="paint_linear_51_1452_0" gradientUnits="userSpaceOnUse">
			<stop stop-color="#EA422A"/>
			<stop offset="0.094788" stop-color="#EC5128"/>
			<stop offset="0.523442" stop-color="#F69020"/>
			<stop offset="0.836995" stop-color="#FDB71B"/>
			<stop offset="1.000000" stop-color="#FFC619"/>
		</linearGradient>
		<linearGradient x1="-0.000046" y1="25.609253" x2="276.671631" y2="25.609253" id="paint_linear_51_1454_0" gradientUnits="userSpaceOnUse">
			<stop stop-color="#EA422A"/>
			<stop offset="0.094788" stop-color="#EC5128"/>
			<stop offset="0.523442" stop-color="#F69020"/>
			<stop offset="0.836995" stop-color="#FDB71B"/>
			<stop offset="1.000000" stop-color="#FFC619"/>
		</linearGradient>
		<linearGradient x1="-0.000046" y1="25.609253" x2="276.671631" y2="25.609253" id="paint_linear_51_1456_0" gradientUnits="userSpaceOnUse">
			<stop stop-color="#EA422A"/>
			<stop offset="0.094788" stop-color="#EC5128"/>
			<stop offset="0.523442" stop-color="#F69020"/>
			<stop offset="0.836995" stop-color="#FDB71B"/>
			<stop offset="1.000000" stop-color="#FFC619"/>
		</linearGradient>
	</defs>
	<path id="Vector" d="M19.2 23.67L31.27 1.1L24.98 1.1L15.95 17.96L6.38 1.1L0 1.1L12.86 23.75L16.1 29.46L27.91 50.11L34.3 50.11L19.2 23.67Z" fill="url(#paint_linear_51_1421_0)" fill-opacity="1.000000" fill-rule="nonzero"/>
	<path id="Vector" d="M19.2 23.67L31.27 1.1L24.98 1.1L15.95 17.96L6.38 1.1L0 1.1L12.86 23.75L16.1 29.46L27.91 50.11L34.3 50.11L19.2 23.67Z" fill="url(#paint_linear_51_1422_0)" fill-opacity="1.000000" fill-rule="nonzero"/>
	<path id="Vector" d="M53.68 1.1L53.68 13.39L61.88 31.86L47.61 31.86L47.61 37.38L64.21 37.38L69.61 50.11L75.64 50.11L53.68 1.1Z" fill="url(#paint_linear_51_1424_0)" fill-opacity="1.000000" fill-rule="nonzero"/>
	<path id="Vector" d="M53.68 1.1L53.68 13.39L61.88 31.86L47.61 31.86L47.61 37.38L64.21 37.38L69.61 50.11L75.64 50.11L53.68 1.1Z" fill="url(#paint_linear_51_1425_0)" fill-opacity="1.000000" fill-rule="nonzero"/>
	<path id="Vector" d="M254.71 1.1L254.71 13.39L262.9 31.86L248.64 31.86L248.64 37.38L265.24 37.38L270.63 50.11L276.67 50.11L254.71 1.1Z" fill="url(#paint_linear_51_1427_0)" fill-opacity="1.000000" fill-rule="nonzero"/>
	<path id="Vector" d="M254.71 1.1L254.71 13.39L262.9 31.86L248.64 31.86L248.64 37.38L265.24 37.38L270.63 50.11L276.67 50.11L254.71 1.1Z" fill="url(#paint_linear_51_1428_0)" fill-opacity="1.000000" fill-rule="nonzero"/>
	<path id="Vector" d="M125.33 1.1L130.89 1.1L130.89 50.11L125.33 50.11L125.33 1.1Z" fill="url(#paint_linear_51_1431_0)" fill-opacity="1.000000" fill-rule="evenodd"/>
	<path id="Vector" d="M125.33 1.1L130.89 1.1L130.89 50.11L125.33 50.11L125.33 1.1Z" fill="url(#paint_linear_51_1433_0)" fill-opacity="1.000000" fill-rule="evenodd"/>
	<path id="Vector" d="M125.33 1.1L130.89 1.1L130.89 50.11L125.33 50.11L125.33 1.1Z" fill="url(#paint_linear_51_1435_0)" fill-opacity="1.000000" fill-rule="evenodd"/>
	<path id="Vector" d="M144.21 50.11L150.72 50.11L180.8 1.1L144.69 1.1L144.69 6.62L170.91 6.62L144.21 50.11Z" fill="url(#paint_linear_51_1438_0)" fill-opacity="1.000000" fill-rule="nonzero"/>
	<path id="Vector" d="M144.21 50.11L150.72 50.11L180.8 1.1L144.69 1.1L144.69 6.62L170.91 6.62L144.21 50.11Z" fill="url(#paint_linear_51_1440_0)" fill-opacity="1.000000" fill-rule="nonzero"/>
	<path id="Vector" d="M144.21 50.11L150.72 50.11L180.8 1.1L144.69 1.1L144.69 6.62L170.91 6.62L144.21 50.11Z" fill="url(#paint_linear_51_1442_0)" fill-opacity="1.000000" fill-rule="nonzero"/>
	<path id="Vector" d="M189.91 50.41L194.88 19.12L209.8 51.21L224.72 19.12L229.69 50.41L235.32 50.41L227.32 0L209.8 37.75L192.29 0L184.28 50.41L189.91 50.41Z" fill="url(#paint_linear_51_1445_0)" fill-opacity="1.000000" fill-rule="nonzero"/>
	<path id="Vector" d="M189.91 50.41L194.88 19.12L209.8 51.21L224.72 19.12L229.69 50.41L235.32 50.41L227.32 0L209.8 37.75L192.29 0L184.28 50.41L189.91 50.41Z" fill="url(#paint_linear_51_1447_0)" fill-opacity="1.000000" fill-rule="nonzero"/>
	<path id="Vector" d="M189.91 50.41L194.88 19.12L209.8 51.21L224.72 19.12L229.69 50.41L235.32 50.41L227.32 0L209.8 37.75L192.29 0L184.28 50.41L189.91 50.41Z" fill="url(#paint_linear_51_1449_0)" fill-opacity="1.000000" fill-rule="nonzero"/>
	<path id="Vector" d="M94.83 23.01L86.01 23.01L104.77 50.11L112.02 50.11L97.22 28.74C103.82 27.61 108.85 21.89 108.85 15.02C108.85 7.34 102.56 1.1 94.83 1.1L88.95 1.1L88.95 7.03L94.83 7.03C99.27 7.03 102.88 10.61 102.88 15.02C102.88 19.42 99.27 23.01 94.83 23.01Z" fill="url(#paint_linear_51_1452_0)" fill-opacity="1.000000" fill-rule="nonzero"/>
	<path id="Vector" d="M94.83 23.01L86.01 23.01L104.77 50.11L112.02 50.11L97.22 28.74C103.82 27.61 108.85 21.89 108.85 15.02C108.85 7.34 102.56 1.1 94.83 1.1L88.95 1.1L88.95 7.03L94.83 7.03C99.27 7.03 102.88 10.61 102.88 15.02C102.88 19.42 99.27 23.01 94.83 23.01Z" fill="url(#paint_linear_51_1454_0)" fill-opacity="1.000000" fill-rule="nonzero"/>
	<path id="Vector" d="M94.83 23.01L86.01 23.01L104.77 50.11L112.02 50.11L97.22 28.74C103.82 27.61 108.85 21.89 108.85 15.02C108.85 7.34 102.56 1.1 94.83 1.1L88.95 1.1L88.95 7.03L94.83 7.03C99.27 7.03 102.88 10.61 102.88 15.02C102.88 19.42 99.27 23.01 94.83 23.01Z" fill="url(#paint_linear_51_1456_0)" fill-opacity="1.000000" fill-rule="nonzero"/>
</svg>
