<svg width="21.000000" height="21.000000" viewBox="0 0 21 21" fill="none" xmlns="http://www.w3.org/2000/svg" xmlns:xlink="http://www.w3.org/1999/xlink">
	<desc>
			Created with Pixso.
	</desc>
	<defs>
		<clipPath id="clip51_1113">
			<rect id="icons8_people 1" rx="0.000000" width="20.000000" height="20.000000" transform="translate(0.500000 0.500000)" fill="white" fill-opacity="0"/>
		</clipPath>
	</defs>
	<rect id="icons8_people 1" rx="0.000000" width="20.000000" height="20.000000" transform="translate(0.500000 0.500000)" fill="#FFFFFF" fill-opacity="0"/>
	<g clip-path="url(#clip51_1113)">
		<path id="Vector" d="M11.3 2.09C7.57 2.09 6.19 4.97 7.25 7.41C7.12 7.5 6.91 7.78 6.95 8.26C7.04 9.15 7.44 9.36 7.66 9.41C7.75 10.25 8.28 11.23 8.59 11.36C8.59 11.94 8.58 12.42 8.54 13.04C7.86 14.82 3.52 14.41 2.96 17.61C2.94 17.75 3.08 18.06 3.37 18.06L17.63 18.06C18.06 18.06 18.05 17.74 18.03 17.6C17.46 14.41 13.13 14.82 12.45 13.04C12.41 12.38 12.4 11.94 12.4 11.36C12.71 11.23 13.2 10.2 13.29 9.41C13.51 9.41 13.87 9.14 14 8.25C14.04 7.76 13.86 7.45 13.68 7.41C14.39 6.52 14.27 2.9 11.65 2.9L11.3 2.09ZM6.36 4.19C3.56 4.24 2.33 6.47 3.17 8.38C3.08 8.43 2.9 8.66 2.95 9.06C3.04 9.78 3.31 9.96 3.49 9.96C3.57 10.63 3.97 11.38 4.19 11.52C4.19 11.97 4.2 11.95 4.16 12.49C3.79 13.64 0 13.55 0 16.37C0 16.37 0 16.79 0.41 16.79L2.32 16.79C2.96 14.98 4.7 14.28 6.02 13.76C6.74 13.48 7.49 13.19 7.71 12.83C7.74 12.44 7.75 12.11 7.75 11.74C7.35 11.29 7.06 10.58 6.91 9.97C6.57 9.72 6.2 9.23 6.11 8.33C6.07 7.9 6.16 7.55 6.31 7.27C5.97 6.23 6 5.15 6.36 4.19ZM15.96 4.19C15.55 4.19 15.08 4.23 14.63 4.3C14.97 5.29 14.98 6.46 14.68 7.31C14.81 7.59 14.87 7.95 14.84 8.33L14.83 8.36L14.83 8.38C14.7 9.21 14.4 9.71 14.04 9.98C13.9 10.55 13.63 11.27 13.24 11.73C13.24 12.09 13.25 12.41 13.28 12.83C13.5 13.19 14.25 13.48 14.97 13.76C16.28 14.28 18.03 14.98 18.67 16.79L20.58 16.79C21 16.79 21 16.39 21 16.39C21 13.14 17.4 13.91 16.86 12.42C16.81 11.93 16.81 11.97 16.81 11.48C17.03 11.34 17.45 10.59 17.49 9.96C17.67 9.96 17.94 9.77 18.03 9.05C18.07 8.69 17.94 8.43 17.81 8.38C18.35 7.66 18.26 4.82 16.23 4.82L15.96 4.19Z" fill="#FFFFFF" fill-opacity="1.000000" fill-rule="nonzero"/>
	</g>
</svg>
